<?xml version="1.0" standalone="no"?>
<!DOCTYPE svg PUBLIC "-//W3C//DTD SVG 20010904//EN"
 "http://www.w3.org/TR/2001/REC-SVG-20010904/DTD/svg10.dtd">
<svg version="1.0" xmlns="http://www.w3.org/2000/svg"
 width="947.000000pt" height="1280.000000pt" viewBox="0 0 947.000000 1280.000000"
 preserveAspectRatio="xMidYMid meet">
<metadata>
Created by potrace 1.15, written by Peter Selinger 2001-2017
</metadata>
<g transform="translate(0.000000,1280.000000) scale(0.100000,-0.100000)"
fill="#003A64" stroke="none">
<path d="M4790 12794 c-1213 -71 -2409 -276 -2980 -511 -509 -210 -899 -567
-1120 -1025 -140 -291 -180 -520 -180 -1033 1 -766 124 -1475 350 -2015 149
-356 300 -626 623 -1119 200 -305 227 -355 227 -424 0 -72 -32 -134 -127 -244
-279 -325 -540 -801 -687 -1252 -127 -388 -186 -765 -186 -1192 0 -909 301
-1905 801 -2644 466 -689 1063 -1067 1944 -1230 359 -66 691 -93 1240 -101
1183 -18 1914 96 2505 390 267 134 450 265 666 480 281 280 482 571 683 988
251 519 407 1062 478 1656 24 207 24 722 0 907 -53 396 -143 733 -282 1051
-31 71 -68 165 -82 209 -28 88 -80 196 -183 380 -172 307 -237 467 -247 609
-15 207 65 389 278 636 101 118 139 173 221 325 151 278 394 832 502 1142 103
299 179 661 218 1048 16 167 17 709 0 875 -43 425 -85 576 -220 785 -200 311
-595 623 -1087 861 -135 66 -258 106 -477 155 -487 110 -1317 223 -2013 274
-203 15 -733 27 -865 19z m635 -1504 c523 -49 1227 -223 1895 -467 441 -161
599 -271 719 -502 85 -164 108 -347 77 -615 -40 -344 -124 -605 -351 -1086
-48 -102 -107 -231 -130 -287 -96 -231 -271 -425 -478 -529 -164 -83 -257
-104 -473 -104 -231 0 -345 14 -499 61 -247 77 -504 132 -785 169 -200 27
-623 37 -837 21 -427 -33 -850 -127 -1213 -269 l-145 -57 -135 1 c-121 0 -142
3 -202 27 -94 36 -170 91 -263 188 -122 127 -161 182 -232 322 -164 329 -477
1182 -532 1454 -68 333 30 649 279 903 85 86 107 103 205 152 459 231 1499
500 2305 597 91 11 188 22 215 24 118 8 479 6 580 -3z"/>
</g>
</svg>
